<svg t="1699601923384" class="icon" viewBox="0 0 1024 1024" version="1.1" xmlns="http://www.w3.org/2000/svg" p-id="11569" id="mx_n_1699601923385" width="16" height="16"><path d="M314.112 527.616c-39.168 12.032-67.584 41.728-72.96 83.712l-0.512 2.048c-4.352 41.216 14.848 87.296 54.272 104.704 4.864 2.304 10.496 4.096 16.128 5.12h0.512l4.352 1.536h0.768c22.272 4.352 33.792 7.168 46.336 14.336 12.032 7.168 19.712 15.872 35.328 33.536l3.328 3.584c33.792 37.12 93.952 34.048 132.608 4.608 9.472-7.168 18.176-16.128 24.32-26.368 6.912-11.008 11.776-23.04 14.08-36.864 1.792-12.8 1.28-27.648-2.56-43.264-5.888-25.344-12.288-47.36-19.712-66.304-7.168-17.664-14.848-33.536-23.552-46.848-11.264-17.664-24.064-30.72-38.4-39.168-30.976-17.664-71.68-15.872-105.984-10.496-19.968 2.816-42.24 8.448-66.816 15.872l-1.536 0.256z m206.336-282.88c-1.28-3.84-3.328-6.656-5.12-9.472-14.336-20.992-39.936-23.04-60.416-8.192-15.872 11.264-26.624 28.672-32 48.384-5.376 19.456-4.352 40.448 3.584 57.856 1.28 3.328 3.328 6.144 5.12 8.96 6.144 8.704 14.336 14.336 23.04 16.896 8.96 2.048 18.944 1.28 28.16-3.072 3.328-1.28 6.656-2.816 9.472-5.376 15.616-11.008 26.624-28.672 32-48.128 5.12-19.968 4.352-40.448-3.328-58.112l-0.512 0.256zM565.76 200.448c23.808 33.28 28.672 78.848 17.664 118.016-8.704 32.512-27.904 62.976-56.064 82.688-5.632 4.608-12.288 7.68-18.432 11.008-23.296 10.496-47.872 12.544-70.4 6.656-22.272-6.144-42.496-19.968-57.6-40.96-3.84-5.632-7.168-12.032-10.496-18.688-14.336-30.976-15.872-67.072-7.168-99.84 8.704-32.512 27.904-62.976 56.064-82.432v0.256c48.128-34.048 112.128-26.112 146.432 23.296z m-378.88 128c0.512 12.288 5.376 25.344 12.032 35.072l0.768 1.024c7.68 9.984 19.2 18.688 31.488 22.016 7.68 2.56 15.872 2.048 21.76-1.792l2.048-1.28 0.256-0.768c5.376-4.352 7.936-11.52 8.192-18.944 0.768-13.312-3.84-27.136-11.264-37.632l-0.512-0.512c-8.192-10.496-20.224-19.712-33.024-23.808-18.944-5.376-32.256 7.424-31.744 26.624z m-60.928 1.28C124.16 269.056 177.408 225.28 236.544 243.2c25.088 7.424 48.64 25.856 64 45.056l2.048 2.816c14.336 20.224 23.552 48.64 22.784 75.264-2.56 58.368-55.04 96-111.36 79.36-50.944-14.848-87.296-63.232-88.064-115.968z m597.248 31.744c-18.944 2.304-37.376 11.776-51.968 26.112-14.08 14.336-24.064 33.024-25.856 51.712-2.304 24.832 11.264 46.08 37.12 48.384h11.008c18.944-1.536 37.632-11.52 51.968-25.856 14.08-14.08 24.064-32.768 25.856-51.712 0.512-3.84 0.512-7.424 0-10.496-1.024-10.496-5.12-19.712-11.52-25.856v-0.512l-0.256 0.512c-6.4-6.912-15.616-11.008-25.856-12.288h-0.768c-2.816-0.256-6.4-0.256-9.728 0z m-95.232-17.664c23.808-24.064 55.808-40.448 89.856-43.264 6.912-0.512 14.336-0.512 20.992 0h0.768c25.6 2.048 47.872 12.8 64 29.184 16.128 16.384 26.624 38.656 29.184 63.744v0.512c0.768 6.912 0.768 14.336 0 21.76-2.816 33.536-19.456 65.792-43.52 89.6-23.808 23.808-55.808 40.192-89.6 43.52-7.68 0.512-14.848 0.512-21.76 0-59.904-5.632-98.56-56.32-93.184-115.2 2.56-33.792 19.2-65.792 43.264-89.856z m188.16 295.68c-11.264-5.376-25.088-6.656-38.4-3.84-13.824 2.816-26.112 9.728-34.56 19.712-11.008 14.336-7.424 30.464 8.448 39.424 11.264 5.888 25.856 7.168 39.424 4.352 14.08-2.816 26.368-9.728 34.56-19.968 1.28-2.304 2.816-3.84 3.584-5.376 7.936-15.104-0.512-27.136-13.056-34.304z m-50.944-64.256c27.904-5.888 55.296-1.792 80.64 10.24 42.752 22.528 60.16 71.936 38.4 114.944l-0.768 1.792c-2.816 4.864-6.144 9.984-9.984 14.848-17.152 21.76-42.752 36.352-69.888 41.984-27.392 5.632-56.576 2.816-81.152-10.496-5.632-2.816-10.752-6.4-15.104-9.984-16.384-12.544-26.88-30.464-30.72-48.896-3.84-18.944-1.024-39.168 8.704-57.344 2.816-5.12 5.888-9.984 9.728-15.36 17.152-21.504 43.008-35.84 70.144-41.728z m-469.248-106.24l1.536-0.512c27.392-8.448 52.48-14.336 76.032-17.92 48.64-7.68 101.632-6.656 145.408 18.432 44.032 25.344 71.168 70.912 88.832 117.248 8.96 21.76 16.128 46.592 22.528 74.24 5.632 23.808 6.656 45.824 3.584 66.048-3.584 22.784-11.264 43.264-22.784 60.672-10.496 17.152-24.064 30.976-39.424 42.752s-33.536 20.992-51.968 27.136c-58.624 18.176-121.856 5.632-162.816-39.68l-3.072-3.84c-11.264-12.544-17.152-18.944-21.504-21.504-4.096-2.048-12.288-3.584-28.672-7.168l-0.768-0.512-4.608-1.024c-80.384-16.64-126.976-98.56-118.272-176.896v-2.304c8.448-66.56 54.272-116.48 115.968-135.168z" fill="#606266" p-id="11570"></path></svg>