<svg t="1699856680173" class="icon" viewBox="0 0 2197 1024" version="1.1" xmlns="http://www.w3.org/2000/svg" p-id="4102" width="16" height="16"><path d="M1291.94343 698.8c26.8-25.2 40.2-58.2 40.2-99 0-32.8-8.9-59.4-26.5-79.9-17.7-20.5-41.3-32.6-70.7-36.4v-1.3c23.6-8.4 42.1-22.6 55.5-42.5 13.4-19.9 20.1-43.4 20.1-70.5 0-32.3-11.1-58.6-33.2-78.8-22.2-20.2-52.1-30.2-89.9-30.2H1063.04343v476.5h127.4c40.8-0.1 74.6-12.7 101.5-37.9zM1114.24343 310.7H1173.04343c55.8 0 83.8 23.2 83.8 69.4 0 26.8-8 47.6-24.1 62.3-16 14.7-38.1 22.1-66.1 22.1h-52.4V310.7z m0 204H1173.04343c70.3 0 105.4 28.2 105.4 84.4 0 27-8.3 48.3-24.8 63.8-16.6 15.5-39.9 23.3-69.9 23.3h-69.5V514.7z m299.9-255.5h50v477.4h-50V259.2z m394.7 429.1c28.1-32.7 42.2-76.1 42.2-130.4 0-55.4-13.1-98.7-39.1-129.9-26.1-31.2-62.4-46.8-108.9-46.8-48.8 0-87.5 16.1-116.1 48.2-28.6 32.1-43 76.8-43 133.9 0 52.5 13.7 94.6 41.3 126.4 27.5 31.8 64.3 47.7 110.5 47.7 47.2-0.1 85-16.4 113.1-49.1z m-213.7-127.1c0-41.9 9.3-74.7 28-98.5 18.7-23.8 44.1-35.7 76.2-35.7 32.3 0 57.1 11.5 74.5 34.5s26.1 55.8 26.1 98.3c0 42.1-8.7 74.5-26.1 97.4-17.3 22.8-42.2 34.2-74.5 34.2-31.7 0-57-11.6-75.9-34.9-18.9-23.2-28.3-54.9-28.3-95.3z m0 0" fill="#409eff" p-id="4103"></path><path d="M2197.14343 702.1v-313h-50v47.2h-1.2c-20.3-36.8-51.5-55.2-93.6-55.2-44.3 0-79.2 17.1-104.6 51.2-25.5 34.1-38.2 80.1-38.2 137.9 0 50.9 11.8 91.5 35.5 121.8 23.7 30.3 54.9 45.4 93.7 45.4 47.7 0 83.5-21.7 107.3-65.1h1.2v37.2c0 34.9-5.9 62.9-17.7 84.1l-25.2 29.1-1.1 0.8c-7.9 5.3-63.8 39.5-143.9-0.7-86.5-43.4-209.6-47-239.9 66.7l35.7 30s0-53.5 55.3-74.9c41.1-15.9 85.8 4.2 121.2 20.7v0.2c10.2 5.6 20.9 10.2 32.3 13.9l0.5 0.2c22.2 6.7 45.2 10.1 68.3 9.9 109.6 0 164.4-62.5 164.4-187.4z m-76.3-43.2c-17.6 21.7-40.4 32.6-68.4 32.6-27.6 0-49.8-11.3-66.6-34.1-16.8-22.7-25.1-53-25.1-90.9 0-44.1 8.7-78.3 26.2-102.8s41.6-36.7 72.5-36.7c25 0 45.8 9.6 62.6 28.9 16.8 19.3 25.1 42.4 25.1 69.4v50.2c0.1 33.9-8.7 61.7-26.3 83.4z m0 0" fill="#409eff" p-id="4104"></path><path d="M337.84343 449.5c68.8 27.6 151.2-26.8 182.9-121l74.1-219.4c31.8-94.2-9.6-134.7-92-90.1L454.74343 45.2c-82.4 44.6-170.6 142.5-196 217.7-25.3 74.9 10.2 159 79.1 186.6z m73.5 202.7c25.3-75-24.5-164.9-110.9-199.5l-201.2-80.8c-86.4-34.7-123.5 10.5-82.6 100.3l23.9 52.5c40.9 89.8 130.7 186.1 199.6 213.7C308.94343 766 386.04343 727.3 411.34343 652.2z m507-103l-23.9-52.5c-40.9-89.8-130.7-186-199.5-213.7-68.8-27.6-145.9 11.1-171.2 86.3-25.3 75 24.6 164.9 110.9 199.5l201.2 80.8c86.4 34.7 123.5-10.6 82.5-100.4zM597.24343 572C528.44343 544.4 446.14343 598.8 414.34343 693l-74.1 219.4c-31.8 94.2 9.6 134.7 92 90.1l48.1-26c82.4-44.6 170.6-142.6 196-217.7 25.3-75.1-10.2-159.2-79.1-186.8z m0 0" p-id="4105" fill="#409eff"></path></svg>