<svg t="1701913289024" class="icon" viewBox="0 0 1024 1024" version="1.1" xmlns="http://www.w3.org/2000/svg" p-id="7123" width="16" height="16"><path d="M810.666667 704H298.666667v42.666667h512v42.666666a42.666667 42.666667 0 0 1-42.666667 42.666667H256a42.666667 42.666667 0 0 1-42.666667-42.666667V234.666667a42.666667 42.666667 0 0 1 42.666667-42.666667h512a42.666667 42.666667 0 0 1 42.666667 42.666667v469.333333z m-200.682667-377.536a21.333333 21.333333 0 0 0-30.165333 0l-150.72 150.741333 60.288 60.288 150.741333-150.72a21.333333 21.333333 0 0 0 0-30.186666l-30.144-30.122667zM398.933333 567.637333l75.370667-15.061333-60.288-60.309333-15.082667 75.370666z" fill="#858585" p-id="7124"></path></svg>