<svg t="1701942525832" class="icon" viewBox="0 0 1024 1024" version="1.1" xmlns="http://www.w3.org/2000/svg" p-id="20150" width="16" height="16"><path d="M883.5 97h-741C66.1 97 4 159.1 4 235.5v79.9c0-6.1 1.5-12.3 4.6-18.1C18.7 278.8 41.8 272 60.3 282l416.8 226c18.3 9.9 40.2 10.1 58.7 0.4l430.3-226.6c18.6-9.8 41.7-2.7 51.5 15.9 9.8 18.6 2.7 41.5-15.9 51.3L571.4 575.6c-20.3 10.7-42.4 16-64.6 16-22.7 0-45.4-5.6-66.1-16.8l-416.8-226C11.2 341.9 4 328.8 4 315.4v473.8c0 76.4 62.1 138.5 138.5 138.5h741c76.4 0 138.5-62.1 138.5-138.5V235.5C1022 159.1 959.9 97 883.5 97z" fill="#858585" p-id="20151"></path></svg>